<svg width="161" height="71" viewBox="0 0 161 71" fill="none" xmlns="http://www.w3.org/2000/svg">
<path d="M10.8768 58.4617C17.7315 60.7705 24.3183 62.9587 30.8919 65.17C32.2046 65.605 33.1305 65.9135 34.6863 66.73C35.848 67.3243 38.2845 68.6377 37.383 69.7483C36.5427 70.588 35.839 71.077 33.4828 70.5422C27.4053 69.1301 21.587 66.8255 15.8019 64.5702C10.6949 62.5751 6.831 60.9759 2.41687 58.9441C0.355405 57.995 0.116537 56.5771 1.36807 54.9001C2.49185 53.3955 3.61858 51.8314 5.00443 50.5662C9.97608 45.9774 15.0476 41.5366 20.0989 37.0233C20.7228 36.4588 21.1757 35.981 22.0142 35.4153C23.0369 34.7396 23.7435 34.1911 24.5832 35.0314C25.3896 35.8224 24.5588 37.1868 24.0043 37.7906C19.4813 42.938 9.97417 53.4003 9.59502 54.0724C13.7293 53.8384 17.5605 53.7083 21.3905 53.3637C48.0514 50.8368 74.3059 46.4308 99.1896 35.8438C118.887 27.4639 137.252 16.8965 153.971 3.50628C154.964 2.72188 156.036 2.01295 157.082 1.35037C158.486 0.431661 159.379 0.202283 159.905 0.895796C160.714 2.33036 159.921 3.19619 159.347 3.94197C158.223 5.44662 156.765 6.73198 155.356 7.98406C136.334 24.5357 114.429 36.0699 90.9149 44.7713C66.7813 53.7038 41.6488 56.8791 16.158 57.9275C14.8114 57.9317 11.4829 58.2537 10.8768 58.4617Z" fill="#22E974"/>
</svg>
