<svg width="21" height="18" viewBox="0 0 21 18" fill="none" xmlns="http://www.w3.org/2000/svg">
<path d="M10.7227 18L3.65155 12.7279C2.25304 11.6852 1.30064 10.3567 0.914799 8.91037C0.528957 7.46408 0.726997 5.96497 1.48388 4.60259C2.24076 3.24022 3.52248 2.07578 5.16697 1.25653C6.81146 0.437275 8.74485 0 10.7227 0C12.7005 0 14.6339 0.437275 16.2783 1.25653C17.9228 2.07578 19.2046 3.24022 19.9614 4.60259C20.7183 5.96497 20.9164 7.46408 20.5305 8.91037C20.1447 10.3567 19.1923 11.6852 17.7938 12.7279L10.7227 18ZM16.2227 11.5565C17.3103 10.7455 18.051 9.71218 18.351 8.58731C18.6511 7.46243 18.497 6.29648 17.9083 5.23688C17.3196 4.17729 16.3227 3.27165 15.0437 2.63447C13.7646 1.9973 12.2609 1.65721 10.7227 1.65721C9.18439 1.65721 7.68067 1.9973 6.40164 2.63447C5.12261 3.27165 4.12571 4.17729 3.53701 5.23688C2.9483 6.29648 2.79423 7.46243 3.09427 8.58731C3.39431 9.71218 4.135 10.7455 5.22266 11.5565L10.7227 15.6572L16.2227 11.5565ZM10.7227 9.11263C10.1333 9.11263 9.56806 8.93807 9.15131 8.62735C8.73456 8.31663 8.50044 7.8952 8.50044 7.45578C8.50044 7.01635 8.73456 6.59493 9.15131 6.28421C9.56806 5.97349 10.1333 5.79893 10.7227 5.79893C11.312 5.79893 11.8773 5.97349 12.294 6.28421C12.7108 6.59493 12.9449 7.01635 12.9449 7.45578C12.9449 7.8952 12.7108 8.31663 12.294 8.62735C11.8773 8.93807 11.312 9.11263 10.7227 9.11263Z" fill="white"/>
</svg>
