<svg width="16" height="14" viewBox="0 0 16 14" fill="none" xmlns="http://www.w3.org/2000/svg">
<path d="M3.662 4.63068L0.477146 3.21998V2.84199L3.662 1.2423V1.84303L1.2214 3.00399L3.662 4.02995V4.63068Z" fill="white"/>
<path d="M6.48658 5.3799H5.78256V2.18052C5.78256 2.06802 5.78256 1.96453 5.78256 1.87003C5.78702 1.77103 5.79149 1.67654 5.79597 1.58654C5.80044 1.49204 5.8049 1.40205 5.80937 1.31655C5.75127 1.37505 5.69092 1.43129 5.62834 1.48529C5.56576 1.53929 5.49424 1.60229 5.41378 1.67429L4.89079 2.09952L4.52873 1.64054L5.89654 0.560575H6.48658V5.3799Z" fill="white"/>
<path d="M11.3629 2.96349C11.3629 3.35498 11.3316 3.70371 11.269 4.0097C11.2109 4.31569 11.117 4.57668 10.9874 4.79268C10.8622 5.00417 10.6946 5.16616 10.4845 5.27866C10.2789 5.39115 10.0308 5.4474 9.74027 5.4474C9.37373 5.4474 9.072 5.34841 8.8351 5.15041C8.59819 4.95242 8.42162 4.66893 8.3054 4.29994C8.18918 3.92646 8.13107 3.48097 8.13107 2.96349C8.13107 2.44151 8.18248 1.99602 8.28529 1.62704C8.39257 1.25805 8.56466 0.976811 8.80157 0.783317C9.03848 0.585325 9.35138 0.486328 9.74027 0.486328C10.1068 0.486328 10.4085 0.585325 10.6454 0.783317C10.8868 0.976811 11.0656 1.25805 11.1818 1.62704C11.3025 1.99602 11.3629 2.44151 11.3629 2.96349ZM8.8418 2.96349C8.8418 3.38198 8.87085 3.73071 8.92896 4.0097C8.98707 4.28869 9.08094 4.49794 9.21057 4.63743C9.34467 4.77693 9.52124 4.84667 9.74027 4.84667C9.95929 4.84667 10.1336 4.77918 10.2633 4.64418C10.3974 4.50469 10.4935 4.29544 10.5516 4.01645C10.6141 3.73296 10.6454 3.38198 10.6454 2.96349C10.6454 2.545 10.6141 2.19852 10.5516 1.92403C10.4935 1.64504 10.3974 1.43579 10.2633 1.2963C10.1336 1.1568 9.95929 1.08706 9.74027 1.08706C9.52124 1.08706 9.34467 1.1568 9.21057 1.2963C9.08094 1.43579 8.98707 1.64504 8.92896 1.92403C8.87085 2.19852 8.8418 2.545 8.8418 2.96349Z" fill="white"/>
<path d="M15.1999 2.96349C15.1999 3.35498 15.1686 3.70371 15.106 4.0097C15.0479 4.31569 14.954 4.57668 14.8244 4.79268C14.6993 5.00417 14.5316 5.16616 14.3215 5.27866C14.1159 5.39115 13.8678 5.4474 13.5773 5.4474C13.2107 5.4474 12.909 5.34841 12.6721 5.15041C12.4352 4.95242 12.2586 4.66893 12.1424 4.29994C12.0262 3.92646 11.9681 3.48097 11.9681 2.96349C11.9681 2.44151 12.0195 1.99602 12.1223 1.62704C12.2296 1.25805 12.4017 0.976811 12.6386 0.783317C12.8755 0.585325 13.1884 0.486328 13.5773 0.486328C13.9438 0.486328 14.2455 0.585325 14.4825 0.783317C14.7238 0.976811 14.9026 1.25805 15.0189 1.62704C15.1395 1.99602 15.1999 2.44151 15.1999 2.96349ZM12.6788 2.96349C12.6788 3.38198 12.7079 3.73071 12.766 4.0097C12.8241 4.28869 12.918 4.49794 13.0476 4.63743C13.1817 4.77693 13.3583 4.84667 13.5773 4.84667C13.7963 4.84667 13.9706 4.77918 14.1003 4.64418C14.2344 4.50469 14.3305 4.29544 14.3886 4.01645C14.4512 3.73296 14.4825 3.38198 14.4825 2.96349C14.4825 2.545 14.4512 2.19852 14.3886 1.92403C14.3305 1.64504 14.2344 1.43579 14.1003 1.2963C13.9706 1.1568 13.7963 1.08706 13.5773 1.08706C13.3583 1.08706 13.1817 1.1568 13.0476 1.2963C12.918 1.43579 12.8241 1.64504 12.766 1.92403C12.7079 2.19852 12.6788 2.545 12.6788 2.96349Z" fill="white"/>
<path d="M3.68882 11.031C3.68882 11.4225 3.65753 11.7712 3.59495 12.0772C3.53685 12.3832 3.44298 12.6442 3.31335 12.8602C3.18819 13.0717 3.02056 13.2337 2.81047 13.3462C2.60486 13.4587 2.35677 13.5149 2.06622 13.5149C1.69968 13.5149 1.39796 13.4159 1.16105 13.2179C0.924144 13.0199 0.74758 12.7364 0.63136 12.3674C0.515141 11.994 0.457031 11.5485 0.457031 11.031C0.457031 10.509 0.508436 10.0635 0.611245 9.69454C0.718525 9.32555 0.890619 9.04431 1.12753 8.85081C1.36444 8.65282 1.67734 8.55383 2.06622 8.55383C2.43276 8.55383 2.73448 8.65282 2.97139 8.85081C3.21277 9.04431 3.39157 9.32555 3.50779 9.69454C3.62848 10.0635 3.68882 10.509 3.68882 11.031ZM1.16776 11.031C1.16776 11.4495 1.19681 11.7982 1.25492 12.0772C1.31303 12.3562 1.4069 12.5654 1.53653 12.7049C1.67063 12.8444 1.84719 12.9142 2.06622 12.9142C2.28525 12.9142 2.45958 12.8467 2.58921 12.7117C2.72331 12.5722 2.81941 12.3629 2.87752 12.084C2.9401 11.8005 2.97139 11.4495 2.97139 11.031C2.97139 10.6125 2.9401 10.266 2.87752 9.99152C2.81941 9.71253 2.72331 9.50329 2.58921 9.3638C2.45958 9.2243 2.28525 9.15455 2.06622 9.15455C1.84719 9.15455 1.67063 9.2243 1.53653 9.3638C1.4069 9.50329 1.31303 9.71253 1.25492 9.99152C1.19681 10.266 1.16776 10.6125 1.16776 11.031Z" fill="white"/>
<path d="M6.48658 13.4474H5.78256V10.248C5.78256 10.1355 5.78256 10.032 5.78256 9.93753C5.78702 9.83853 5.79149 9.74403 5.79597 9.65404C5.80044 9.55954 5.8049 9.46954 5.80937 9.38405C5.75127 9.44254 5.69092 9.49879 5.62834 9.55279C5.56576 9.60679 5.49424 9.66979 5.41378 9.74178L4.89079 10.167L4.52873 9.70804L5.89654 8.62807H6.48658V13.4474Z" fill="white"/>
<path d="M11.3629 11.031C11.3629 11.4225 11.3316 11.7712 11.269 12.0772C11.2109 12.3832 11.117 12.6442 10.9874 12.8602C10.8622 13.0717 10.6946 13.2337 10.4845 13.3462C10.2789 13.4587 10.0308 13.5149 9.74027 13.5149C9.37373 13.5149 9.072 13.4159 8.8351 13.2179C8.59819 13.0199 8.42162 12.7364 8.3054 12.3674C8.18918 11.994 8.13107 11.5485 8.13107 11.031C8.13107 10.509 8.18248 10.0635 8.28529 9.69454C8.39257 9.32555 8.56466 9.04431 8.80157 8.85081C9.03848 8.65282 9.35138 8.55383 9.74027 8.55383C10.1068 8.55383 10.4085 8.65282 10.6454 8.85081C10.8868 9.04431 11.0656 9.32555 11.1818 9.69454C11.3025 10.0635 11.3629 10.509 11.3629 11.031ZM8.8418 11.031C8.8418 11.4495 8.87085 11.7982 8.92896 12.0772C8.98707 12.3562 9.08094 12.5654 9.21057 12.7049C9.34467 12.8444 9.52124 12.9142 9.74027 12.9142C9.95929 12.9142 10.1336 12.8467 10.2633 12.7117C10.3974 12.5722 10.4935 12.3629 10.5516 12.084C10.6141 11.8005 10.6454 11.4495 10.6454 11.031C10.6454 10.6125 10.6141 10.266 10.5516 9.99152C10.4935 9.71253 10.3974 9.50329 10.2633 9.3638C10.1336 9.2243 9.95929 9.15455 9.74027 9.15455C9.52124 9.15455 9.34467 9.2243 9.21057 9.3638C9.08094 9.50329 8.98707 9.71253 8.92896 9.99152C8.87085 10.266 8.8418 10.6125 8.8418 11.031Z" fill="white"/>
<path d="M11.9882 12.0975L14.4288 11.0715L11.9882 9.91053V9.3098L15.1731 10.9095V11.2875L11.9882 12.6982V12.0975Z" fill="white"/>
</svg>
