<svg width="35" height="35" viewBox="0 0 35 35" fill="none" xmlns="http://www.w3.org/2000/svg">
<path d="M35 35H0V0H35V35Z" fill="black"/>
<path d="M24.2929 10.6399C23.3801 10.5349 22.5025 10.4649 21.5898 10.3949C20.677 10.3249 19.7994 10.2899 18.8867 10.2899C18.4303 10.2899 17.9739 10.2549 17.4824 10.2549C17.0612 10.2549 16.6048 10.2549 16.1835 10.2899C15.2708 10.2899 14.3932 10.3599 13.4804 10.3949C12.5677 10.4649 11.6901 10.5349 10.7773 10.6399C9.86459 10.7449 8.98696 10.8499 8.07422 10.9899V13.7199C8.98696 13.5799 9.86459 13.4399 10.7773 13.3349C11.655 13.2299 12.5677 13.1599 13.4804 13.0899C14.3932 13.0199 15.2708 12.9849 16.1835 12.9849C16.6048 12.9849 17.0612 12.9849 17.4824 12.9849C17.9388 12.9849 18.3952 12.9849 18.8867 12.9849C19.7994 13.0199 20.677 13.0549 21.5898 13.0899C22.5025 13.1599 23.3801 13.2299 24.2929 13.3349C25.2056 13.4399 26.0832 13.5799 26.996 13.7199V10.9899C26.1184 10.8499 25.2056 10.7449 24.2929 10.6399Z" fill="white"/>
<path d="M24.2929 16.17C23.4152 16.065 22.5025 15.96 21.5898 15.925C20.677 15.855 19.7994 15.82 18.8867 15.785C18.4303 15.785 17.9739 15.75 17.4824 15.75C17.0612 15.75 16.6048 15.75 16.1835 15.75C15.2708 15.785 14.3932 15.82 13.4804 15.89C12.5677 15.96 11.6901 16.03 10.7773 16.135C9.86459 16.24 8.95185 16.38 8.07422 16.52V19.25V24.71H10.7773V18.865C11.6901 18.76 12.5677 18.655 13.4804 18.585V24.71H16.1484V18.48C16.5697 18.48 17.0261 18.445 17.4473 18.445C17.9037 18.445 18.3601 18.445 18.8516 18.48V24.745H21.5547V18.585C22.4674 18.655 23.345 18.725 24.2578 18.865V24.71H26.9609V19.285V16.555C26.1184 16.415 25.2056 16.275 24.2929 16.17Z" fill="white"/>
</svg>
