<svg width="60" height="60" viewBox="0 0 60 60" fill="none" xmlns="http://www.w3.org/2000/svg">
<path d="M59.7397 59.8957H0.104492V0.104004H59.7397V59.8957Z" fill="black"/>
<path d="M24.7827 29.5513L32.4058 16.31C32.4644 16.2107 32.5747 16.0268 32.5747 16.0268C32.5747 16.0268 32.4537 15.8061 32.4058 15.7216L30.4286 12.2862C30.3186 12.0912 29.9223 11.4365 29.9223 11.4365C29.9223 11.4365 29.5261 12.0912 29.416 12.2862L11.0148 44.2418C10.9048 44.4368 10.5049 45.1244 10.5049 45.1244C10.5049 45.1244 11.2936 45.1209 11.5211 45.1209H15.4794C15.5894 45.1209 15.8022 45.1244 15.8022 45.1244C15.8022 45.1244 15.9343 44.9149 15.9856 44.8266L21.4517 35.3334C21.5618 35.1383 21.958 34.5021 21.958 34.5021C21.958 34.5021 22.3542 35.1383 22.4642 35.3334L27.9339 44.8304C27.9853 44.9186 28.1137 45.1244 28.1137 45.1244H32.3986C32.6479 45.1244 33.422 45.1209 33.422 45.1209C33.422 45.1209 33.0075 44.422 32.9048 44.2455L24.7827 30.1362C24.7314 30.0514 24.6103 29.8456 24.6103 29.8456C24.6103 29.8456 24.7277 29.6468 24.7827 29.5513Z" fill="white"/>
<path d="M34.7237 21.4998L32.7465 24.9351C32.6951 25.0234 32.5703 25.2367 32.5703 25.2367C32.5703 25.2367 32.6913 25.4317 32.7465 25.5236L40.8721 39.633C40.9821 39.8243 41.3931 40.5157 41.3931 40.5157C41.3931 40.5157 40.5969 40.5157 40.3659 40.5157H37.0826C36.8588 40.5157 36.0626 40.5119 36.0626 40.5119C36.0626 40.5119 36.4626 41.1998 36.5764 41.3949L38.5535 44.8303C38.6049 44.9185 38.7335 45.1243 38.7335 45.1243H49.3355C49.3355 45.1243 48.9355 44.4219 48.8328 44.2454L35.7361 21.5034C35.6261 21.3122 35.2374 20.6611 35.2374 20.6611C35.2374 20.6611 34.8375 21.3085 34.7237 21.5034V21.4998Z" fill="white"/>
</svg>
