<svg width="208" height="208" viewBox="0 0 208 208" fill="none" xmlns="http://www.w3.org/2000/svg">
<path d="M129.271 71.6729C127.749 73.392 122.51 79.1609 120.872 81.3553C110.334 66.0299 108.259 64.4033 99.9269 64.4033C85.2785 64.4803 70.0331 69.7916 57.7008 77.4626C49.5202 82.5586 48.8483 85.1097 47.8999 93.0137C47.1937 98.5127 46.8117 104.048 46.7559 109.592C47.1219 106.959 63.6507 107.505 63.6507 110.541C63.6902 105.542 64.1447 93.8832 64.4213 91.2353C65.5081 90.8401 66.9703 90.3066 68.5709 89.7533C71.5009 87.1691 74.2662 84.404 76.8503 81.4739C77.8495 86.2977 78.4574 91.1943 78.6683 96.116C85.448 92.864 93.8772 92.4604 101.333 93.982C101.432 93.7053 101.55 93.4089 101.645 93.1323C101.689 89.3142 101.464 85.4977 100.973 81.711C103.168 85.1929 111.362 96.5008 114.493 99.574C119.589 104.593 123.957 104.139 128.878 98.3884C133.129 93.4694 137.093 88.3102 140.752 82.9361C141.426 75.5199 133.992 70.4395 129.271 71.6729Z" fill="#FECFC4"/>
<path d="M127.651 172.706C126.786 171.555 126.365 170.131 126.465 168.695C122.765 167.914 118.981 167.602 115.202 167.766C114.508 172.134 114.087 176.264 113.76 178.478C114.669 175.554 142.017 183.655 142.609 187.252C142.757 182.064 131.604 177.899 127.651 172.706Z" fill="#FECFC4"/>
<path d="M176.716 25.5925C172.072 21.1663 176.518 16.7401 174.72 12.1162C180.035 14.2305 183.632 19.6645 181.241 24.7824L176.716 25.5925Z" fill="#FECFC4"/>
<path d="M38.9887 162.529C33.9832 163.579 30.9807 164.479 28.832 164.96C32.29 164.96 34.1079 193.217 30.6697 195.706C35.7522 193.568 35.3872 182.131 37.4297 177.369C37.7283 176.525 38.24 175.772 38.915 175.183C39.5901 174.594 40.4058 174.191 41.2829 174.01C41.15 170.084 40.375 166.206 38.9887 162.529Z" fill="#FECFC4"/>
<path d="M152.629 51.4188C147.669 47.4075 140.674 51.7745 141.01 57.1294C142.083 57.1532 143.142 57.3812 144.13 57.8013C144.715 58.7633 145.048 59.8576 145.098 60.9826C145.77 62.2078 146.303 63.2155 146.738 64.085C153.32 66.0807 159.149 56.6802 152.629 51.4188Z" fill="#FECFC4"/>
<path d="M132.256 59.4608L130.696 57.7615L129.353 53.6119C124.235 51.4185 115.625 55.7855 115.975 64.4404C116.287 71.9689 123.622 75.0317 127.415 73.8066C128.225 72.8976 128.897 72.1426 129.312 71.6725C129.756 71.5507 130.216 71.4974 130.676 71.5144C130.873 67.8193 130.32 65.8236 130.32 63.9464C130.32 63.1955 131.209 61.8123 132.256 59.4608Z" fill="#FECFC4"/>
<path d="M168.969 44.6018L116.526 32.1364C113.088 31.504 111.092 32.9465 110.104 35.5153L106.25 45.44C107.362 54.332 107.256 58.414 106.429 59.4249C105.718 60.2944 104.078 60.7093 102.102 60.4129C102.303 61.789 102.573 63.1542 102.912 64.5032C103.643 64.5653 104.37 64.6775 105.085 64.8392L115.855 36.7768L166.262 49.0083L150.375 94.4168L135.694 89.9905C134.567 91.4527 133.342 93.0138 131.998 94.6539L150.474 100.206C153.3 101.056 156.027 100.147 157.271 96.7287L172.902 51.7747C173.969 48.6921 173.653 45.7479 168.969 44.6018ZM163.199 73.8071C163.135 74.0405 163.024 74.2582 162.872 74.4469C162.72 74.6356 162.531 74.7914 162.318 74.9046C162.103 75.0177 161.868 75.086 161.627 75.1051C161.386 75.1242 161.142 75.0939 160.914 75.0158C160.684 74.9378 160.474 74.8137 160.294 74.6511C160.114 74.4887 159.97 74.2912 159.869 74.0709C159.769 73.8507 159.714 73.6121 159.709 73.37C159.704 73.128 159.749 72.8874 159.84 72.6631C159.905 72.4297 160.016 72.2119 160.168 72.0233C160.32 71.8345 160.508 71.6788 160.722 71.5656C160.936 71.4524 161.171 71.3842 161.413 71.3651C161.654 71.3459 161.897 71.3763 162.126 71.4544C162.355 71.5325 162.566 71.6566 162.746 71.819C162.925 71.9815 163.069 72.179 163.17 72.3992C163.271 72.6195 163.325 72.8581 163.331 73.1002C163.336 73.3423 163.291 73.5829 163.199 73.8071Z" fill="#22E974"/>
<path d="M134.548 61.9512L138.934 66.7528C136.662 67.7408 134.172 65.7285 134.548 61.9512Z" fill="#22E974"/>
<path d="M140.792 60.449C140.239 60.3107 139.014 60.0933 137.568 59.876L140.792 63.3933C140.871 62.4135 140.871 61.4288 140.792 60.449Z" fill="#22E974"/>
<path d="M126.485 168.675C129.884 169.465 130.793 170.532 130.793 171.323C130.793 172.33 129.129 172.686 127.673 172.686C126.813 171.533 126.392 170.111 126.485 168.675Z" fill="#22E974"/>
<path d="M115.203 167.766C114.946 169.505 114.728 170.947 114.57 172.192C112.239 171.737 110.749 170.748 110.836 169.663C110.908 168.753 112.14 167.983 115.203 167.766Z" fill="#22E974"/>
<path d="M35.6487 159.19C36.5598 158.959 37.8223 159.763 38.9882 162.549C36.9082 163.003 35.3326 163.381 34.0482 163.693C33.732 161.265 34.6035 159.454 35.6487 159.19Z" fill="#22E974"/>
<path d="M41.2809 174.01C40.4079 174.2 39.597 174.608 38.9235 175.195C38.2499 175.782 37.7355 176.53 37.4277 177.369C37.8437 178.67 38.9555 180.046 39.9726 179.32C40.7141 178.792 41.3517 177.147 41.2809 174.01Z" fill="#22E974"/>
<path d="M96.3511 109.75C95.9954 114.789 96.2523 126.783 96.3511 131.012C94.3751 130.379 92.6362 129.846 91.332 129.49C93.2685 121.527 94.8098 115.263 96.3511 109.75Z" fill="#22E974"/>
<path d="M46.7737 109.553C46.6551 110.422 48.2754 111.331 50.6217 111.45C50.8331 111.288 51.0026 111.078 51.1157 110.837C51.2974 109.887 51.3637 108.918 51.3133 107.952C48.1766 108.17 46.8725 108.861 46.7737 109.553Z" fill="#22E974"/>
<path d="M63.646 110.32C63.4724 109.661 62.4344 108.954 60.1953 108.506C60.2546 109.375 60.2941 110.64 60.3534 112.042C61.6617 112.001 63.958 111.503 63.646 110.32Z" fill="#22E974"/>
<path d="M76.8691 81.4541C77.2247 83.1535 77.5607 85.0307 77.8373 86.9661C74.717 87.7333 71.6371 88.6566 68.6094 89.7325C71.5235 87.1383 74.2815 84.3741 76.8691 81.4541Z" fill="#22E974"/>
<path d="M104.237 86.4733C103.308 88.805 102.458 90.9983 101.668 93.1293C101.711 89.3111 101.486 85.4948 100.996 81.708C101.549 82.6003 102.752 84.3787 104.237 86.4733Z" fill="#22E974"/>
<path d="M130.127 180.982C122.559 178.552 114.264 176.887 113.76 178.475C113.092 180.601 120.673 183.684 128.229 185.784C134.781 187.606 141.321 188.689 142.441 187.77C144.597 186.002 132.806 181.842 130.127 180.982Z" fill="#22E974"/>
<path d="M32.3242 178.984C31.8395 171.771 30.5281 164.981 28.8121 164.981C26.7248 164.972 26.0041 171.909 26.2547 179.212C26.5345 187.324 28.0134 195.886 30.1558 195.886C33.1749 195.213 32.5301 182.044 32.3242 178.984Z" fill="#22E974"/>
<path d="M180.451 113.92C175.241 112.899 169.847 113.401 164.916 115.365C159.983 117.331 155.721 120.674 152.641 124.998C149.559 129.322 147.789 134.442 147.542 139.745C147.295 145.048 148.58 150.31 151.246 154.902C165.967 145.694 176.124 130.913 180.451 113.92Z" fill="#22E974"/>
<path d="M101.943 57.7021C103.998 59.1841 105.895 60.1524 106.528 59.2237C105.915 60.4488 104.631 60.8045 102.141 60.4093C102.042 59.5003 101.983 58.5913 101.943 57.7021Z" fill="#22E974"/>
<path d="M108.861 36.8754C107.754 35.4724 105.837 34.6227 102.893 34.9389C104.197 24.1697 88.8438 22.6284 88.251 31.639C80.4063 25.5331 67.7994 34.9982 76.6717 41.519C71.8502 41.8154 70.2497 48.1979 75.407 48.1979C63.5115 56.3192 72.8778 74.3996 98.6053 57.2459C99.9919 56.0542 101.238 54.7085 102.32 53.2346C100.127 50.2508 102.577 48.3736 103.486 50.5077C104 51.7328 104.573 49.8556 104.573 48.3341C105.297 48.3769 106.004 48.5652 106.653 48.8874C109.616 47.1703 111.592 40.3136 108.861 36.8754Z" fill="#22E974"/>
<path d="M176.716 25.5925C172.072 21.1663 176.518 16.7401 174.72 12.1162C180.035 14.2305 183.632 19.6645 181.241 24.7824L176.716 25.5925Z" stroke="black" stroke-width="1.5" stroke-linecap="round" stroke-linejoin="round"/>
<path d="M102.912 64.5032C103.643 64.5653 104.369 64.6775 105.086 64.8392L115.855 36.7768L166.263 49.0083L150.376 94.4168L135.694 89.9905C134.568 91.4527 133.343 93.0138 131.999 94.6539L150.474 100.206C153.3 101.056 156.027 100.147 157.272 96.7287L172.902 51.7747C173.969 48.6921 173.653 45.7479 168.97 44.6018L116.527 32.1364C113.089 31.504 111.093 32.9465 110.105 35.5153L109.306 37.5708M163.2 73.8071C163.135 74.0405 163.024 74.2582 162.872 74.4469C162.72 74.6356 162.531 74.7914 162.318 74.9046C162.104 75.0177 161.869 75.086 161.627 75.1051C161.386 75.1242 161.143 75.0939 160.914 75.0158C160.684 74.9378 160.474 74.8137 160.294 74.6511C160.114 74.4887 159.971 74.2912 159.87 74.0709C159.769 73.8507 159.715 73.6121 159.71 73.37C159.704 73.128 159.749 72.8874 159.841 72.6631C159.905 72.4297 160.016 72.2119 160.168 72.0233C160.32 71.8345 160.508 71.6788 160.723 71.5656C160.937 71.4524 161.172 71.3842 161.413 71.3651C161.654 71.3459 161.898 71.3763 162.127 71.4544C162.355 71.5325 162.567 71.6566 162.746 71.819C162.925 71.9815 163.07 72.179 163.171 72.3992C163.272 72.6195 163.326 72.8581 163.331 73.1002C163.336 73.3423 163.291 73.5829 163.2 73.8071Z" stroke="black" stroke-width="1.5" stroke-linejoin="round"/>
<path d="M8.00586 157.392L21.1265 138.659" stroke="black" stroke-width="1.5" stroke-linecap="round" stroke-linejoin="round"/>
<path d="M5.19922 141.465L23.9317 154.585" stroke="black" stroke-width="1.5" stroke-linecap="round" stroke-linejoin="round"/>
<path d="M132.828 114.414L145.475 112.181" stroke="black" stroke-width="1.5" stroke-linecap="round" stroke-linejoin="round"/>
<path d="M138.045 106.984L140.258 119.631" stroke="black" stroke-width="1.5" stroke-linecap="round" stroke-linejoin="round"/>
<path d="M175.156 168.695C190.423 168.695 202.8 156.318 202.8 141.05C202.8 125.783 190.423 113.406 175.156 113.406C159.889 113.406 147.512 125.783 147.512 141.05C147.512 156.318 159.889 168.695 175.156 168.695Z" stroke="black" stroke-width="1.5" stroke-linecap="round" stroke-linejoin="round"/>
<path d="M34.1484 82.6797C40.3907 82.6797 45.4511 77.6192 45.4511 71.3769C45.4511 65.1346 40.3907 60.0742 34.1484 60.0742C27.906 60.0742 22.8457 65.1346 22.8457 71.3769C22.8457 77.6192 27.906 82.6797 34.1484 82.6797Z" stroke="black" stroke-width="1.5" stroke-linecap="round" stroke-linejoin="round"/>
<path d="M83.0527 162.864C92.2012 164.703 101.527 165.511 110.855 165.275" stroke="black" stroke-width="1.5" stroke-linecap="round" stroke-linejoin="round"/>
<path d="M130.795 163.26C176.476 153.125 197.112 99.3167 171.975 54.495M57.7024 154.267C36.3829 143.767 20.0099 125.352 12.0766 102.95C-4.64038 57.1073 23.8754 36.8002 50.7074 44.777C64.6767 48.9298 71.4554 45.2908 72.3248 32.921C73.135 21.401 81.3156 12.7606 105.739 14.2478C126.903 15.538 151.13 27.9656 164.464 43.5007" stroke="black" stroke-width="1.5" stroke-linecap="round" stroke-linejoin="round"/>
<path d="M39.8771 20.8506L13.7731 25.4547C12.7644 25.6495 11.8727 26.2331 11.2906 27.0796C10.7084 27.926 10.4824 28.9675 10.6614 29.9791C10.8404 30.9907 11.41 31.8913 12.2472 32.4866C13.0845 33.082 14.1222 33.3242 15.1365 33.1611L41.2405 28.557L48.6703 23.2613L39.8771 20.8506Z" stroke="black" stroke-width="1.5" stroke-linecap="round" stroke-linejoin="round"/>
<path d="M15 25.2373L16.3634 32.9437" stroke="black" stroke-width="1.5" stroke-linecap="round" stroke-linejoin="round"/>
<path d="M19.4258 24.4658L20.7695 32.1722" stroke="black" stroke-width="1.5" stroke-linecap="round" stroke-linejoin="round"/>
<path d="M39.8789 20.8506L41.2423 28.557" stroke="black" stroke-width="1.5" stroke-linecap="round" stroke-linejoin="round"/>
<path d="M176.717 25.5922C176.796 29.0882 177.119 32.5745 177.685 36.0254C179.48 46.2258 182.803 56.971 184.522 56.6746C186.241 56.3782 185.698 45.1306 183.89 34.9386C183.249 31.501 182.364 28.1135 181.242 24.8018L176.717 25.5922Z" stroke="black" stroke-width="1.5" stroke-linecap="round" stroke-linejoin="round"/>
<path d="M177.467 34.7616L183.671 33.6748" stroke="black" stroke-width="1.5" stroke-linecap="round" stroke-linejoin="round"/>
<path d="M50.6277 111.47C48.2762 111.351 46.6601 110.442 46.7797 109.573C46.9024 108.644 49.1311 107.737 54.8615 107.909C61.3428 108.108 63.7421 109.45 63.6942 110.537C63.6609 111.307 62.2715 111.96 60.3745 112.019" stroke="black" stroke-width="1.5" stroke-linecap="round" stroke-linejoin="round"/>
<path d="M120.894 81.3353C122.534 79.1419 127.771 73.3918 129.292 71.6529C132.988 70.6451 141.405 74.439 140.753 82.9358C137.088 88.3042 133.123 93.4618 128.877 98.384C123.945 104.123 119.613 104.605 114.492 99.5696C111.194 96.3269 102.774 84.5936 100.996 81.7066C101.487 85.4933 101.712 89.3097 101.668 93.1278" stroke="black" stroke-width="1.5" stroke-linecap="round" stroke-linejoin="round"/>
<path d="M122.909 84.2999C110.362 65.8441 108.524 64.3818 99.9483 64.3818C86.5707 64.3818 70.9978 69.1409 57.7243 77.4432C49.5426 82.559 48.9071 85.1142 47.9233 92.9943C47.2283 98.4945 46.8464 104.03 46.7793 109.573" stroke="black" stroke-width="1.5" stroke-linecap="round" stroke-linejoin="round"/>
<path d="M104.236 86.4531C96.6682 105.324 94.6797 115.66 84.6739 157.485C82.7832 165.414 80.7032 169.338 71.4347 172.016C61.7502 174.813 42.427 178.715 39.6211 179.465" stroke="black" stroke-width="1.5" stroke-linecap="round" stroke-linejoin="round"/>
<path d="M34.0489 163.675C33.7369 161.283 34.6022 159.464 35.6495 159.19C37.0119 158.832 39.1688 160.83 40.5895 168.2C42.0933 176 40.9015 179.179 39.6212 179.483C38.81 179.676 37.8824 178.792 37.4279 177.369" stroke="black" stroke-width="1.5" stroke-linecap="round" stroke-linejoin="round"/>
<path d="M35.6484 159.19C42.5644 157.649 67.798 152.014 69.5171 151.622" stroke="black" stroke-width="1.5" stroke-linecap="round" stroke-linejoin="round"/>
<path d="M101.351 93.9814C87.756 91.215 72.4867 94.9517 67.5987 107.873C63.3129 119.216 64.6347 133.521 65.7267 152.451" stroke="black" stroke-width="1.5" stroke-linecap="round" stroke-linejoin="round"/>
<path d="M75.6445 76.7314C77.4079 83.053 78.4291 89.5583 78.6876 96.116" stroke="black" stroke-width="1.5" stroke-linecap="round" stroke-linejoin="round"/>
<path d="M63.6699 110.54C63.7094 105.561 64.1639 93.863 64.4406 91.2152C68.8189 89.5558 73.2846 88.1375 77.8181 86.9668" stroke="black" stroke-width="1.5" stroke-linecap="round" stroke-linejoin="round"/>
<path d="M28.8324 164.979C32.4485 164.988 34.2862 195.904 30.1761 195.884C26.066 195.864 24.426 164.969 28.8324 164.979Z" stroke="black" stroke-width="1.5" stroke-linecap="round" stroke-linejoin="round"/>
<path d="M28.832 164.98C31.12 164.466 33.0607 163.836 38.9887 162.529" stroke="black" stroke-width="1.5" stroke-linecap="round" stroke-linejoin="round"/>
<path d="M41.3007 174.01C38.4552 174.842 37.0689 176.205 35.9655 183.613C35.2063 188.709 33.7919 194.955 30.1758 195.885" stroke="black" stroke-width="1.5" stroke-linecap="round" stroke-linejoin="round"/>
<path d="M114.571 172.192C112.239 171.738 110.768 170.749 110.836 169.683C110.924 168.318 113.505 167.277 120.815 167.865C128.957 168.52 130.774 170.197 130.774 171.323C130.774 172.331 129.11 172.686 127.654 172.686" stroke="black" stroke-width="1.5" stroke-linecap="round" stroke-linejoin="round"/>
<path d="M113.76 178.475C114.708 175.452 143.712 184.166 142.59 187.565C141.719 190.193 112.476 182.566 113.76 178.475Z" stroke="black" stroke-width="1.5" stroke-linecap="round" stroke-linejoin="round"/>
<path d="M113.76 178.476C114.096 176.203 114.333 173.615 115.202 167.764" stroke="black" stroke-width="1.5" stroke-linecap="round" stroke-linejoin="round"/>
<path d="M126.487 168.675C126.467 171.599 127.319 173.38 133.422 177.723C138.206 181.124 143.006 183.947 142.591 187.563" stroke="black" stroke-width="1.5" stroke-linecap="round" stroke-linejoin="round"/>
<path d="M98.3086 103.052C106.523 108.285 114.438 113.972 122.021 120.085C129.98 126.71 130.794 129.174 130.794 140.655V171.323" stroke="black" stroke-width="1.5" stroke-linecap="round" stroke-linejoin="round"/>
<path d="M110.837 169.683C110.975 161.759 111.035 138.795 110.837 135.854C104.87 133.799 95.6219 130.696 91.334 129.51" stroke="black" stroke-width="1.5" stroke-linecap="round" stroke-linejoin="round"/>
<path d="M95.1662 93.1914C87.2029 103.052 82.1838 125.855 77.8169 158.202C65.625 162.035 47.1691 166.323 40.4902 167.706" stroke="black" stroke-width="1.5" stroke-linecap="round" stroke-linejoin="round"/>
<path d="M60.2159 108.466C60.374 111.569 60.6902 119.594 60.2752 121.093C59.8603 122.592 55.4163 129.907 52.7664 133.028C51.0879 135.004 49.0224 135.454 51.1461 131.349C52.3958 128.896 53.4731 126.359 54.3701 123.757C56.889 116.586 51.5621 115.044 49.4301 117.611C46.1728 121.526 43.733 122.51 45.0236 119.429C45.8109 117.551 46.229 116.426 46.7823 115.003C47.3355 113.58 50.8923 111.723 51.1295 110.893C51.3196 109.943 51.3859 108.974 51.3271 108.008" stroke="black" stroke-width="1.5" stroke-linecap="round" stroke-linejoin="round"/>
<path d="M53.0773 127.12C51.4416 128.789 49.5949 130.237 47.584 131.427C45.1328 132.864 44.2841 131.526 47.168 128.839C49.1844 126.966 51.0025 124.89 52.5937 122.645" stroke="black" stroke-width="1.5" stroke-linecap="round" stroke-linejoin="round"/>
<path d="M50.9043 121.211C51.9252 122.224 53.0944 123.075 54.3717 123.735" stroke="black" stroke-width="1.5" stroke-linecap="round" stroke-linejoin="round"/>
<path d="M50.2524 125.618C48.3779 126.55 46.3926 127.24 44.3441 127.673C41.6776 128.231 42.0343 126.67 44.8579 125.48C47.1265 124.406 49.2786 123.101 51.2799 121.587" stroke="black" stroke-width="1.5" stroke-linecap="round" stroke-linejoin="round"/>
<path d="M47.6246 124.037C46.1885 124.274 44.7308 124.353 43.2774 124.274C41.341 124.037 40.7866 122.905 43.7319 122.456C46.0488 122.122 48.3012 121.436 50.4108 120.42C50.6393 118.987 51.1711 117.62 51.9708 116.409" stroke="black" stroke-width="1.5" stroke-linecap="round" stroke-linejoin="round"/>
<path d="M96.3719 131.012C96.2731 126.724 96.0162 114.493 96.3719 109.572" stroke="black" stroke-width="1.5" stroke-linecap="round" stroke-linejoin="round"/>
<path d="M68.5898 89.7335C71.5199 87.1495 74.2851 84.3842 76.8693 81.4541" stroke="black" stroke-width="1.5" stroke-linecap="round" stroke-linejoin="round"/>
<path d="M132.255 59.4415L130.695 57.7421L129.352 53.6123L133.363 55.292L152.15 75.704C152.475 76.0552 152.648 76.521 152.629 76.999C152.61 77.4771 152.403 77.9281 152.052 78.253C151.7 78.578 151.234 78.7501 150.757 78.7316C150.278 78.7131 149.827 78.5054 149.503 78.1543L134.584 61.9302" stroke="black" stroke-width="1.5" stroke-linecap="round" stroke-linejoin="round"/>
<path d="M149.308 72.6211C148.678 72.7369 148.093 73.0282 147.62 73.4617C147.148 73.8952 146.808 74.453 146.639 75.0713" stroke="black" stroke-width="1.5" stroke-linecap="round" stroke-linejoin="round"/>
<path d="M150.377 73.7871C149.746 73.9033 149.162 74.1949 148.69 74.6283C148.219 75.0617 147.879 75.6194 147.709 76.2374" stroke="black" stroke-width="1.5" stroke-linecap="round" stroke-linejoin="round"/>
<path d="M130.655 71.4951C130.852 67.8 130.299 65.8042 130.299 63.927C130.299 63.0576 131.505 61.299 132.789 58.1374C133.639 56.0428 135.316 57.3865 134.626 61.2397C133.873 65.4486 136.523 67.8 138.954 66.7132" stroke="black" stroke-width="1.5" stroke-linecap="round" stroke-linejoin="round"/>
<path d="M137.572 59.8564C139.015 60.0738 140.24 60.2912 140.796 60.4295C140.875 61.4094 140.875 62.3939 140.796 63.3737" stroke="black" stroke-width="1.5" stroke-linecap="round" stroke-linejoin="round"/>
<path d="M134.627 56.6807C137.314 56.7992 143.479 57.1549 144.132 57.807C145.12 58.795 145.357 63.6164 145.475 65.3158" stroke="black" stroke-width="1.5" stroke-linecap="round" stroke-linejoin="round"/>
<path d="M145.1 60.9824C148.558 67.2463 148.597 68.096 147.095 70.2103" stroke="black" stroke-width="1.5" stroke-linecap="round" stroke-linejoin="round"/>
<path d="M144.902 73.2158C143.025 75.6265 140.846 77.8397 140.377 79.045" stroke="black" stroke-width="1.5" stroke-linecap="round" stroke-linejoin="round"/>
<path d="M98.6302 57.2307C100.014 56.0442 101.258 54.7044 102.339 53.2371C100.165 50.2533 102.587 48.3803 103.505 50.5102C104.033 51.7374 104.592 49.8581 104.592 48.3366C105.314 48.382 106.022 48.5701 106.672 48.8899C110.841 46.4594 113.074 33.8723 102.897 34.9195C104.196 24.1503 88.8231 22.6288 88.25 31.6165C80.4053 25.5304 67.7984 35.0152 76.6706 41.5163C71.8492 41.8127 70.2487 48.1951 75.406 48.1951C63.4866 56.3227 72.883 74.4323 98.6302 57.2307Z" stroke="black" stroke-width="1.5" stroke-linecap="round" stroke-linejoin="round"/>
<path d="M87.1035 65.6851C93.2489 62.1678 100.461 56.1171 102.338 53.2363" stroke="black" stroke-width="1.5" stroke-linecap="round" stroke-linejoin="round"/>
<path d="M102.714 64.4605C102.451 63.1085 102.253 61.7565 102.117 60.3931C107.991 61.3291 107.14 58.1789 106.646 48.8896" stroke="black" stroke-width="1.5" stroke-linecap="round" stroke-linejoin="round"/>
<path d="M102.117 60.3926C102.027 59.4972 101.963 58.6038 101.924 57.7021C103.979 59.2039 105.876 60.1524 106.508 59.2039" stroke="black" stroke-width="1.5" stroke-linecap="round" stroke-linejoin="round"/>
</svg>
