<svg width="20" height="20" viewBox="0 0 20 20" fill="none" xmlns="http://www.w3.org/2000/svg">
<path d="M4.455 16L0 19.5V1C0 0.734784 0.105357 0.48043 0.292893 0.292893C0.48043 0.105357 0.734784 0 1 0H19C19.2652 0 19.5196 0.105357 19.7071 0.292893C19.8946 0.48043 20 0.734784 20 1V15C20 15.2652 19.8946 15.5196 19.7071 15.7071C19.5196 15.8946 19.2652 16 19 16H4.455ZM2 15.385L3.763 14H18V2H2V15.385ZM10.018 11.7L6.659 8.34C6.23704 7.91804 5.99999 7.34574 5.99999 6.749C5.99999 6.45352 6.05818 6.16094 6.17126 5.88796C6.28433 5.61497 6.45007 5.36693 6.659 5.158C6.86793 4.94907 7.11597 4.78333 7.38896 4.67026C7.66194 4.55718 7.95452 4.49899 8.25 4.49899C8.84674 4.49899 9.41904 4.73604 9.841 5.158L10.018 5.335L10.195 5.158C10.4039 4.94907 10.652 4.78333 10.925 4.67026C11.1979 4.55718 11.4905 4.49899 11.786 4.49899C12.0815 4.49899 12.3741 4.55718 12.647 4.67026C12.92 4.78333 13.1681 4.94907 13.377 5.158C13.5859 5.36693 13.7517 5.61497 13.8647 5.88796C13.9778 6.16094 14.036 6.45352 14.036 6.749C14.036 7.04448 13.9778 7.33706 13.8647 7.61004C13.7517 7.88303 13.5859 8.13107 13.377 8.34L10.017 11.699L10.018 11.7Z" fill="white"/>
</svg>
